ffmpeg started on 2026-03-22 at 17:30:33
Report written to "D:\Convert\FFMetrics\reports\psnr_report-6.txt"
Log level: 32
Command line:
ffmpeg -hide_banner -nostdin -r 24000/1001 -i "F:\\Convert\\files\\[DC] Make Heroine ga Oosugiru - 07_Telegram_HEVC(238).mkv" -r 24000/1001 -i "F:\\Convert\\files\\[DC] Make Heroine ga Oosugiru - 07_Telegram.mp4" -lavfi "[0:v]settb=AVTB,setpts=PTS-STARTPTS,format=pix_fmts=yuv420p10le,fps=24000/1001,scale=1920:1080:flags=lanczos:param0=3:out_range=limited:out_color_matrix=bt709:out_chroma_loc=left,setsar=1/1,setdar=(1920/1080)*(1/1),colorspace=format=yuv420p10:range=tv:primaries=bt709:trc=bt709:space=bt709:fast=0[main];[1:v]settb=AVTB,setpts=PTS-STARTPTS,format=pix_fmts=yuv420p,fps=24000/1001,scale=1920:1080:flags=lanczos:param0=3:out_range=limited:out_color_matrix=bt709:out_chroma_loc=left,setsar=1.000,setdar=1.778,colorspace=format=yuv420p:range=tv:primaries=bt709:trc=bt709:space=bt709:fast=0[ref];[main][ref]psnr=eof_action=endall:stats_file='D\\:/Convert/FFMetrics/logs/psnr_logfile-6.txt'" -f null -
Input #0, matroska,webm, from 'F:\Convert\files\[DC] Make Heroine ga Oosugiru - 07_Telegram_HEVC(238).mkv':
  Metadata:
    COMPATIBLE_BRANDS: isomiso2avc1mp41
    MAJOR_BRAND     : isom
    MINOR_VERSION   : 512
    ENCODER         : Lavf61.7.100
  Duration: 00:24:06.79, start: -0.021000, bitrate: 980 kb/s
  Stream #0:0: Video: hevc (Main 10), yuv420p10le(tv, bt709, progressive), 1920x1080 [SAR 1:1 DAR 16:9], 23.98 fps, 23.98 tbr, 1k tbn (default)
      Metadata:
        HANDLER_NAME    : VideoHandler
        VENDOR_ID       : [0][0][0][0]
        ENCODER         : Lavc61.19.100 libx265
        BPS             : 783818
        DURATION        : 00:24:06.569708333
        NUMBER_OF_FRAMES: 34683
        NUMBER_OF_BYTES : 141730967
        _STATISTICS_WRITING_APP: mkvpropedit v94.0 ('Initiate') 64-bit
        _STATISTICS_WRITING_DATE_UTC: 2026-03-21 14:44:29
        _STATISTICS_TAGS: BPS DURATION NUMBER_OF_FRAMES NUMBER_OF_BYTES
  Stream #0:1: Audio: aac (LC), 48000 Hz, stereo, fltp (default)
      Metadata:
        HANDLER_NAME    : SoundHandler
        VENDOR_ID       : [0][0][0][0]
        ENCODER         : Lavc61.19.100 aac
        BPS             : 193194
        DURATION        : 00:24:06.784000000
        NUMBER_OF_FRAMES: 67819
        NUMBER_OF_BYTES : 34938755
        _STATISTICS_WRITING_APP: mkvpropedit v94.0 ('Initiate') 64-bit
        _STATISTICS_WRITING_DATE_UTC: 2026-03-21 14:44:29
        _STATISTICS_TAGS: BPS DURATION NUMBER_OF_FRAMES NUMBER_OF_BYTES
Input #1, mov,mp4,m4a,3gp,3g2,mj2, from 'F:\Convert\files\[DC] Make Heroine ga Oosugiru - 07_Telegram.mp4':
  Metadata:
    major_brand     : isom
    minor_version   : 512
    compatible_brands: isomiso2avc1mp41
    encoder         : Lavf60.16.100
  Duration: 00:24:06.74, start: 0.000000, bitrate: 3764 kb/s
  Stream #1:0[0x1](und): Video: h264 (High) (avc1 / 0x31637661), yuv420p(tv, bt709, progressive), 1920x1080 [SAR 1:1 DAR 16:9], 3616 kb/s, 23.98 fps, 23.98 tbr, 24k tbn (default)
      Metadata:
        handler_name    : VideoHandler
        vendor_id       : [0][0][0][0]
        encoder         : Lavc60.31.102 h264_qsv
  Stream #1:1[0x2](und): Audio: aac (HE-AACv2) (mp4a / 0x6134706D), 48000 Hz, stereo, fltp, 144 kb/s (default)
      Metadata:
        handler_name    : SoundHandler
        vendor_id       : [0][0][0][0]
Stream mapping:
  Stream #0:0 (hevc) -> settb:default
  Stream #1:0 (h264) -> settb:default
  psnr:default -> Stream #0:0 (wrapped_avframe)
  Stream #0:1 -> #0:1 (aac (native) -> pcm_s16le (native))
Output #0, null, to 'pipe:':
  Metadata:
    COMPATIBLE_BRANDS: isomiso2avc1mp41
    MAJOR_BRAND     : isom
    MINOR_VERSION   : 512
    encoder         : Lavf61.7.100
  Stream #0:0: Video: wrapped_avframe, yuv420p10le(tv, bt709, progressive), 1920x1080 [SAR 1:1 DAR 16:9], q=2-31, 200 kb/s, 23.98 fps, 23.98 tbn
      Metadata:
        encoder         : Lavc61.19.100 wrapped_avframe
  Stream #0:1: Audio: pcm_s16le, 48000 Hz, stereo, s16, 1536 kb/s (default)
      Metadata:
        HANDLER_NAME    : SoundHandler
        VENDOR_ID       : [0][0][0][0]
        _STATISTICS_TAGS: BPS DURATION NUMBER_OF_FRAMES NUMBER_OF_BYTES
        BPS             : 193194
        DURATION        : 00:24:06.784000000
        NUMBER_OF_FRAMES: 67819
        NUMBER_OF_BYTES : 34938755
        _STATISTICS_WRITING_APP: mkvpropedit v94.0 ('Initiate') 64-bit
        _STATISTICS_WRITING_DATE_UTC: 2026-03-21 14:44:29
        encoder         : Lavc61.19.100 pcm_s16le
frame=  142 fps=0.0 q=-0.0 size=N/A time=00:00:05.92 bitrate=N/A speed=11.7x    frame=  348 fps=337 q=-0.0 size=N/A time=00:00:14.51 bitrate=N/A speed=14.1x    frame=  555 fps=359 q=-0.0 size=N/A time=00:00:23.14 bitrate=N/A speed=  15x    frame=  765 fps=372 q=-0.0 size=N/A time=00:00:31.90 bitrate=N/A speed=15.5x    frame=  937 fps=365 q=-0.0 size=N/A time=00:00:39.08 bitrate=N/A speed=15.2x    frame= 1101 fps=356 q=-0.0 size=N/A time=00:00:45.92 bitrate=N/A speed=14.8x    frame= 1267 fps=351 q=-0.0 size=N/A time=00:00:52.84 bitrate=N/A speed=14.6x    frame= 1431 fps=348 q=-0.0 size=N/A time=00:00:59.68 bitrate=N/A speed=14.5x    frame= 1581 fps=342 q=-0.0 size=N/A time=00:01:05.94 bitrate=N/A speed=14.2x    frame= 1743 fps=338 q=-0.0 size=N/A time=00:01:12.69 bitrate=N/A speed=14.1x    frame= 1907 fps=336 q=-0.0 size=N/A time=00:01:19.53 bitrate=N/A speed=  14x    frame= 2061 fps=333 q=-0.0 size=N/A time=00:01:25.96 bitrate=N/A speed=13.9x    frame= 2186 fps=327 q=-0.0 size=N/A time=00:01:31.17 bitrate=N/A speed=13.6x    frame= 2358 fps=327 q=-0.0 size=N/A time=00:01:38.34 bitrate=N/A speed=13.6x    frame= 2486 fps=322 q=-0.0 size=N/A time=00:01:43.68 bitrate=N/A speed=13.4x    frame= 2646 fps=321 q=-0.0 size=N/A time=00:01:50.36 bitrate=N/A speed=13.4x    frame= 2824 fps=323 q=-0.0 size=N/A time=00:01:57.78 bitrate=N/A speed=13.5x    frame= 3013 fps=325 q=-0.0 size=N/A time=00:02:05.66 bitrate=N/A speed=13.5x    frame= 3213 fps=328 q=-0.0 size=N/A time=00:02:14.00 bitrate=N/A speed=13.7x    frame= 3419 fps=332 q=-0.0 size=N/A time=00:02:22.60 bitrate=N/A speed=13.8x    frame= 3626 fps=335 q=-0.0 size=N/A time=00:02:31.23 bitrate=N/A speed=  14x    frame= 3833 fps=338 q=-0.0 size=N/A time=00:02:39.86 bitrate=N/A speed=14.1x    frame= 4040 fps=341 q=-0.0 size=N/A time=00:02:48.50 bitrate=N/A speed=14.2x    frame= 4247 fps=343 q=-0.0 size=N/A time=00:02:57.13 bitrate=N/A speed=14.3x    frame= 4453 fps=346 q=-0.0 size=N/A time=00:03:05.72 bitrate=N/A speed=14.4x    frame= 4656 fps=347 q=-0.0 size=N/A time=00:03:14.19 bitrate=N/A speed=14.5x    frame= 4860 fps=349 q=-0.0 size=N/A time=00:03:22.70 bitrate=N/A speed=14.6x    frame= 5065 fps=351 q=-0.0 size=N/A time=00:03:31.25 bitrate=N/A speed=14.6x    frame= 5265 fps=352 q=-0.0 size=N/A time=00:03:39.59 bitrate=N/A speed=14.7x    frame= 5473 fps=354 q=-0.0 size=N/A time=00:03:48.26 bitrate=N/A speed=14.8x    frame= 5678 fps=355 q=-0.0 size=N/A time=00:03:56.81 bitrate=N/A speed=14.8x    frame= 5876 fps=356 q=-0.0 size=N/A time=00:04:05.07 bitrate=N/A speed=14.9x    frame= 6077 fps=357 q=-0.0 size=N/A time=00:04:13.46 bitrate=N/A speed=14.9x    frame= 6284 fps=358 q=-0.0 size=N/A time=00:04:22.09 bitrate=N/A speed=14.9x    frame= 6491 fps=360 q=-0.0 size=N/A time=00:04:30.72 bitrate=N/A speed=  15x    frame= 6692 fps=361 q=-0.0 size=N/A time=00:04:39.11 bitrate=N/A speed=  15x    frame= 6895 fps=362 q=-0.0 size=N/A time=00:04:47.57 bitrate=N/A speed=15.1x    frame= 7091 fps=362 q=-0.0 size=N/A time=00:04:55.75 bitrate=N/A speed=15.1x    frame= 7297 fps=363 q=-0.0 size=N/A time=00:05:04.34 bitrate=N/A speed=15.1x    frame= 7494 fps=363 q=-0.0 size=N/A time=00:05:12.56 bitrate=N/A speed=15.2x    frame= 7679 fps=363 q=-0.0 size=N/A time=00:05:20.27 bitrate=N/A speed=15.2x    frame= 7879 fps=364 q=-0.0 size=N/A time=00:05:28.61 bitrate=N/A speed=15.2x    frame= 8080 fps=365 q=-0.0 size=N/A time=00:05:37.00 bitrate=N/A speed=15.2x    frame= 8281 fps=365 q=-0.0 size=N/A time=00:05:45.38 bitrate=N/A speed=15.2x    frame= 8485 fps=366 q=-0.0 size=N/A time=00:05:53.89 bitrate=N/A speed=15.3x    frame= 8685 fps=366 q=-0.0 size=N/A time=00:06:02.23 bitrate=N/A speed=15.3x    frame= 8885 fps=367 q=-0.0 size=N/A time=00:06:10.57 bitrate=N/A speed=15.3x    frame= 9088 fps=367 q=-0.0 size=N/A time=00:06:19.04 bitrate=N/A speed=15.3x    frame= 9290 fps=368 q=-0.0 size=N/A time=00:06:27.47 bitrate=N/A speed=15.3x    frame= 9487 fps=368 q=-0.0 size=N/A time=00:06:35.68 bitrate=N/A speed=15.4x    frame= 9690 fps=369 q=-0.0 size=N/A time=00:06:44.15 bitrate=N/A speed=15.4x    frame= 9894 fps=369 q=-0.0 size=N/A time=00:06:52.66 bitrate=N/A speed=15.4x    frame=10099 fps=370 q=-0.0 size=N/A time=00:07:01.21 bitrate=N/A speed=15.4x    frame=10296 fps=370 q=-0.0 size=N/A time=00:07:09.42 bitrate=N/A speed=15.4x    frame=10496 fps=370 q=-0.0 size=N/A time=00:07:17.77 bitrate=N/A speed=15.4x    frame=10700 fps=371 q=-0.0 size=N/A time=00:07:26.27 bitrate=N/A speed=15.5x    frame=10892 fps=371 q=-0.0 size=N/A time=00:07:34.28 bitrate=N/A speed=15.5x    frame=11099 fps=371 q=-0.0 size=N/A time=00:07:42.92 bitrate=N/A speed=15.5x    frame=11290 fps=371 q=-0.0 size=N/A time=00:07:50.88 bitrate=N/A speed=15.5x    frame=11497 fps=372 q=-0.0 size=N/A time=00:07:59.52 bitrate=N/A speed=15.5x    frame=11695 fps=372 q=-0.0 size=N/A time=00:08:07.77 bitrate=N/A speed=15.5x    frame=11892 fps=372 q=-0.0 size=N/A time=00:08:15.99 bitrate=N/A speed=15.5x    frame=12105 fps=373 q=-0.0 size=N/A time=00:08:24.87 bitrate=N/A speed=15.5x    frame=12302 fps=373 q=-0.0 size=N/A time=00:08:33.09 bitrate=N/A speed=15.6x    frame=12505 fps=373 q=-0.0 size=N/A time=00:08:41.56 bitrate=N/A speed=15.6x    frame=12713 fps=374 q=-0.0 size=N/A time=00:08:50.23 bitrate=N/A speed=15.6x    frame=12912 fps=374 q=-0.0 size=N/A time=00:08:58.53 bitrate=N/A speed=15.6x    frame=13118 fps=374 q=-0.0 size=N/A time=00:09:07.12 bitrate=N/A speed=15.6x    frame=13320 fps=374 q=-0.0 size=N/A time=00:09:15.55 bitrate=N/A speed=15.6x    frame=13517 fps=375 q=-0.0 size=N/A time=00:09:23.77 bitrate=N/A speed=15.6x    frame=13722 fps=375 q=-0.0 size=N/A time=00:09:32.32 bitrate=N/A speed=15.6x    frame=13923 fps=375 q=-0.0 size=N/A time=00:09:40.70 bitrate=N/A speed=15.6x    frame=14105 fps=375 q=-0.0 size=N/A time=00:09:48.29 bitrate=N/A speed=15.6x    frame=14312 fps=375 q=-0.0 size=N/A time=00:09:56.92 bitrate=N/A speed=15.6x    frame=14511 fps=375 q=-0.0 size=N/A time=00:10:05.22 bitrate=N/A speed=15.7x    frame=14702 fps=375 q=-0.0 size=N/A time=00:10:13.19 bitrate=N/A speed=15.6x    frame=14904 fps=375 q=-0.0 size=N/A time=00:10:21.62 bitrate=N/A speed=15.7x    frame=15092 fps=375 q=-0.0 size=N/A time=00:10:29.46 bitrate=N/A speed=15.7x    frame=15273 fps=375 q=-0.0 size=N/A time=00:10:37.01 bitrate=N/A speed=15.6x    frame=15473 fps=375 q=-0.0 size=N/A time=00:10:45.35 bitrate=N/A speed=15.6x    frame=15672 fps=375 q=-0.0 size=N/A time=00:10:53.65 bitrate=N/A speed=15.7x    frame=15881 fps=376 q=-0.0 size=N/A time=00:11:02.37 bitrate=N/A speed=15.7x    frame=16083 fps=376 q=-0.0 size=N/A time=00:11:10.79 bitrate=N/A speed=15.7x    frame=16287 fps=376 q=-0.0 size=N/A time=00:11:19.30 bitrate=N/A speed=15.7x    frame=16486 fps=376 q=-0.0 size=N/A time=00:11:27.60 bitrate=N/A speed=15.7x    frame=16687 fps=376 q=-0.0 size=N/A time=00:11:35.98 bitrate=N/A speed=15.7x    frame=16894 fps=377 q=-0.0 size=N/A time=00:11:44.62 bitrate=N/A speed=15.7x    frame=17096 fps=377 q=-0.0 size=N/A time=00:11:53.04 bitrate=N/A speed=15.7x    frame=17303 fps=377 q=-0.0 size=N/A time=00:12:01.67 bitrate=N/A speed=15.7x    frame=17501 fps=377 q=-0.0 size=N/A time=00:12:09.93 bitrate=N/A speed=15.7x    frame=17700 fps=377 q=-0.0 size=N/A time=00:12:18.23 bitrate=N/A speed=15.7x    frame=17901 fps=377 q=-0.0 size=N/A time=00:12:26.62 bitrate=N/A speed=15.7x    frame=18107 fps=378 q=-0.0 size=N/A time=00:12:35.21 bitrate=N/A speed=15.8x    frame=18290 fps=377 q=-0.0 size=N/A time=00:12:42.84 bitrate=N/A speed=15.7x    frame=18495 fps=378 q=-0.0 size=N/A time=00:12:51.39 bitrate=N/A speed=15.7x    frame=18700 fps=378 q=-0.0 size=N/A time=00:12:59.94 bitrate=N/A speed=15.8x    frame=18905 fps=378 q=-0.0 size=N/A time=00:13:08.49 bitrate=N/A speed=15.8x    frame=19105 fps=378 q=-0.0 size=N/A time=00:13:16.83 bitrate=N/A speed=15.8x    frame=19316 fps=378 q=-0.0 size=N/A time=00:13:25.63 bitrate=N/A speed=15.8x    frame=19516 fps=378 q=-0.0 size=N/A time=00:13:33.97 bitrate=N/A speed=15.8x    frame=19717 fps=379 q=-0.0 size=N/A time=00:13:42.36 bitrate=N/A speed=15.8x    frame=19926 fps=379 q=-0.0 size=N/A time=00:13:51.08 bitrate=N/A speed=15.8x    frame=20132 fps=379 q=-0.0 size=N/A time=00:13:59.67 bitrate=N/A speed=15.8x    frame=20340 fps=379 q=-0.0 size=N/A time=00:14:08.34 bitrate=N/A speed=15.8x    frame=20536 fps=379 q=-0.0 size=N/A time=00:14:16.52 bitrate=N/A speed=15.8x    frame=20720 fps=379 q=-0.0 size=N/A time=00:14:24.19 bitrate=N/A speed=15.8x    frame=20924 fps=379 q=-0.0 size=N/A time=00:14:32.70 bitrate=N/A speed=15.8x    frame=21138 fps=380 q=-0.0 size=N/A time=00:14:41.63 bitrate=N/A speed=15.8x    frame=21340 fps=380 q=-0.0 size=N/A time=00:14:50.05 bitrate=N/A speed=15.8x    frame=21537 fps=380 q=-0.0 size=N/A time=00:14:58.27 bitrate=N/A speed=15.8x    frame=21742 fps=380 q=-0.0 size=N/A time=00:15:06.82 bitrate=N/A speed=15.8x    frame=21956 fps=380 q=-0.0 size=N/A time=00:15:15.74 bitrate=N/A speed=15.9x    frame=22153 fps=380 q=-0.0 size=N/A time=00:15:23.96 bitrate=N/A speed=15.9x    frame=22354 fps=380 q=-0.0 size=N/A time=00:15:32.34 bitrate=N/A speed=15.9x    frame=22566 fps=381 q=-0.0 size=N/A time=00:15:41.19 bitrate=N/A speed=15.9x    frame=22769 fps=381 q=-0.0 size=N/A time=00:15:49.65 bitrate=N/A speed=15.9x    frame=22967 fps=381 q=-0.0 size=N/A time=00:15:57.91 bitrate=N/A speed=15.9x    frame=23168 fps=381 q=-0.0 size=N/A time=00:16:06.29 bitrate=N/A speed=15.9x    frame=23373 fps=381 q=-0.0 size=N/A time=00:16:14.84 bitrate=N/A speed=15.9x    frame=23581 fps=381 q=-0.0 size=N/A time=00:16:23.52 bitrate=N/A speed=15.9x    frame=23783 fps=381 q=-0.0 size=N/A time=00:16:31.94 bitrate=N/A speed=15.9x    frame=23988 fps=381 q=-0.0 size=N/A time=00:16:40.49 bitrate=N/A speed=15.9x    frame=24185 fps=381 q=-0.0 size=N/A time=00:16:48.71 bitrate=N/A speed=15.9x    frame=24390 fps=381 q=-0.0 size=N/A time=00:16:57.26 bitrate=N/A speed=15.9x    frame=24597 fps=382 q=-0.0 size=N/A time=00:17:05.89 bitrate=N/A speed=15.9x    frame=24797 fps=382 q=-0.0 size=N/A time=00:17:14.24 bitrate=N/A speed=15.9x    frame=25002 fps=382 q=-0.0 size=N/A time=00:17:22.79 bitrate=N/A speed=15.9x    frame=25218 fps=382 q=-0.0 size=N/A time=00:17:31.80 bitrate=N/A speed=15.9x    frame=25424 fps=382 q=-0.0 size=N/A time=00:17:40.39 bitrate=N/A speed=15.9x    frame=25627 fps=382 q=-0.0 size=N/A time=00:17:48.85 bitrate=N/A speed=15.9x    frame=25828 fps=382 q=-0.0 size=N/A time=00:17:57.24 bitrate=N/A speed=  16x    frame=26031 fps=382 q=-0.0 size=N/A time=00:18:05.70 bitrate=N/A speed=  16x    frame=26233 fps=383 q=-0.0 size=N/A time=00:18:14.13 bitrate=N/A speed=  16x    frame=26438 fps=383 q=-0.0 size=N/A time=00:18:22.68 bitrate=N/A speed=  16x    frame=26643 fps=383 q=-0.0 size=N/A time=00:18:31.23 bitrate=N/A speed=  16x    frame=26850 fps=383 q=-0.0 size=N/A time=00:18:39.86 bitrate=N/A speed=  16x    frame=27039 fps=383 q=-0.0 size=N/A time=00:18:47.75 bitrate=N/A speed=  16x    frame=27227 fps=383 q=-0.0 size=N/A time=00:18:55.59 bitrate=N/A speed=  16x    frame=27420 fps=383 q=-0.0 size=N/A time=00:19:03.64 bitrate=N/A speed=  16x    frame=27615 fps=383 q=-0.0 size=N/A time=00:19:11.77 bitrate=N/A speed=  16x    frame=27814 fps=383 q=-0.0 size=N/A time=00:19:20.07 bitrate=N/A speed=  16x    frame=28010 fps=383 q=-0.0 size=N/A time=00:19:28.25 bitrate=N/A speed=  16x    frame=28206 fps=383 q=-0.0 size=N/A time=00:19:36.42 bitrate=N/A speed=  16x    frame=28417 fps=383 q=-0.0 size=N/A time=00:19:45.22 bitrate=N/A speed=  16x    frame=28616 fps=383 q=-0.0 size=N/A time=00:19:53.52 bitrate=N/A speed=  16x    frame=28803 fps=383 q=-0.0 size=N/A time=00:20:01.32 bitrate=N/A speed=  16x    frame=28975 fps=382 q=-0.0 size=N/A time=00:20:08.49 bitrate=N/A speed=15.9x    frame=29160 fps=382 q=-0.0 size=N/A time=00:20:16.21 bitrate=N/A speed=15.9x    frame=29355 fps=382 q=-0.0 size=N/A time=00:20:24.34 bitrate=N/A speed=15.9x    frame=29527 fps=382 q=-0.0 size=N/A time=00:20:31.52 bitrate=N/A speed=15.9x    frame=29708 fps=382 q=-0.0 size=N/A time=00:20:39.07 bitrate=N/A speed=15.9x    frame=29894 fps=381 q=-0.0 size=N/A time=00:20:46.82 bitrate=N/A speed=15.9x    frame=30058 fps=381 q=-0.0 size=N/A time=00:20:53.66 bitrate=N/A speed=15.9x    frame=30250 fps=381 q=-0.0 size=N/A time=00:21:01.67 bitrate=N/A speed=15.9x    frame=30452 fps=381 q=-0.0 size=N/A time=00:21:10.10 bitrate=N/A speed=15.9x    frame=30648 fps=381 q=-0.0 size=N/A time=00:21:18.27 bitrate=N/A speed=15.9x    frame=30849 fps=381 q=-0.0 size=N/A time=00:21:26.66 bitrate=N/A speed=15.9x    frame=31061 fps=381 q=-0.0 size=N/A time=00:21:35.50 bitrate=N/A speed=15.9x    frame=31256 fps=381 q=-0.0 size=N/A time=00:21:43.63 bitrate=N/A speed=15.9x    frame=31447 fps=381 q=-0.0 size=N/A time=00:21:51.60 bitrate=N/A speed=15.9x    frame=31651 fps=381 q=-0.0 size=N/A time=00:22:00.11 bitrate=N/A speed=15.9x    frame=31838 fps=381 q=-0.0 size=N/A time=00:22:07.90 bitrate=N/A speed=15.9x    frame=32027 fps=381 q=-0.0 size=N/A time=00:22:15.79 bitrate=N/A speed=15.9x    frame=32233 fps=381 q=-0.0 size=N/A time=00:22:24.38 bitrate=N/A speed=15.9x    frame=32427 fps=381 q=-0.0 size=N/A time=00:22:32.47 bitrate=N/A speed=15.9x    frame=32627 fps=381 q=-0.0 size=N/A time=00:22:40.81 bitrate=N/A speed=15.9x    frame=32775 fps=381 q=-0.0 size=N/A time=00:22:46.99 bitrate=N/A speed=15.9x    frame=32951 fps=380 q=-0.0 size=N/A time=00:22:54.33 bitrate=N/A speed=15.9x    frame=33142 fps=380 q=-0.0 size=N/A time=00:23:02.29 bitrate=N/A speed=15.9x    frame=33330 fps=380 q=-0.0 size=N/A time=00:23:10.13 bitrate=N/A speed=15.9x    frame=33494 fps=380 q=-0.0 size=N/A time=00:23:16.97 bitrate=N/A speed=15.8x    frame=33655 fps=379 q=-0.0 size=N/A time=00:23:23.69 bitrate=N/A speed=15.8x    frame=33794 fps=379 q=-0.0 size=N/A time=00:23:29.49 bitrate=N/A speed=15.8x    frame=33928 fps=378 q=-0.0 size=N/A time=00:23:35.08 bitrate=N/A speed=15.8x    frame=34093 fps=378 q=-0.0 size=N/A time=00:23:41.96 bitrate=N/A speed=15.8x    frame=34259 fps=378 q=-0.0 size=N/A time=00:23:48.88 bitrate=N/A speed=15.7x    frame=34388 fps=377 q=-0.0 size=N/A time=00:23:54.26 bitrate=N/A speed=15.7x    frame=34556 fps=377 q=-0.0 size=N/A time=00:24:01.27 bitrate=N/A speed=15.7x    [Parsed_psnr_16 @ 000002587cf53f80] PSNR y:48.950690 u:50.329458 v:50.378881 average:49.370043 min:38.004315 max:inf
[out#0/null @ 000002587536e740] video:14903KiB audio:271276KiB subtitle:0KiB other streams:0KiB global headers:0KiB muxing overhead: unknown
frame=34683 fps=376 q=-0.0 Lsize=N/A time=00:24:06.57 bitrate=N/A speed=15.7x    
